{"title":"MikesApartment.Tina.Hot.xXx.2014-LUiK","uid":10632208,"size":526432649,"categoryP":"porn","categoryS":"movie_clips","magnet":"?xt=urn:btih:7a1f087a1c528c2ff47f5276e50c14b78badec50&amp;dn=MikesApartment.Tina.Hot.xXx.2014-LUiK&amp;tr=udp%3A%2F%2Ftracker.openbittorrent.com%3A80&amp;tr=udp%3A%2F%2Fopen.demonii.com%3A1337&amp;tr=udp%3A%2F%2Ftracker.coppersurfer.tk%3A6969&amp;tr=udp%3A%2F%2Fexodus.desync.com%3A6969","seeders":0,"leechers":0,"uploader":null,"files":-1,"time":1406339681,"description":"General\nComplete name                    : MikesApartment.Tina.Hot.xXx.2014-LUiK.mp4\nFormat                           : MPEG-4\nFormat profile                   : Base Media\nCodec ID                         : isom\nFile size                        : 502 MiB\nDuration                         : 42mn 41s\nOverall bit rate                 : 1 644 Kbps\nEncoded date                     : UTC 2014-07-25 23:48:53\nTagged date                      : UTC 2014-07-25 23:48:53\n\nVideo\nID                               : 1\nFormat                           : MPEG-4 Visual\nFormat profile                   : Simple@L1\nFormat settings, BVOP            : No\nFormat settings, QPel            : No\nFormat settings, GMC             : No warppoints\nFormat settings, Matrix          : Default (H.263)\nCodec ID                         : 20\nDuration                         : 42mn 41s\nBit rate mode                    : Variable\nBit rate                         : 1 536 Kbps\nMaximum bit rate                 : 4 323 Kbps\nWidth                            : 856 pixels\nHeight                           : 480 pixels\nDisplay aspect ratio             : 16:9\nFrame rate mode                  : Constant\nFrame rate                       : 29.970 fps\nColor space                      : YUV\nChroma subsampling               : 4:2:0\nBit depth                        : 8 bits\nScan type                        : Progressive\nCompression mode                 : Lossy\nBits/(Pixel*Frame)               : 0.125\nStream size                      : 469 MiB (93%)\nWriting library                  : Lavc53.8.0\nEncoded date                     : UTC 2014-07-25 23:48:53\nTagged date                      : UTC 2014-07-25 23:49:21\n\nAudio\nID                               : 2\nFormat                           : AAC\nFormat/Info                      : Advanced Audio Codec\nFormat profile                   : LC\nCodec ID                         : 40\nDuration                         : 42mn 41s\nBit rate mode                    : Variable\nBit rate                         : 105 Kbps\nMaximum bit rate                 : 118 Kbps\nChannel(s)                       : 2 channels\nChannel positions                : Front: L R\nSampling rate                    : 44.1 KHz\nCompression mode                 : Lossy\nStream size                      : 32.2 MiB (6%)\nEncoded date                     : UTC 2014-07-25 23:49:13\nTagged date                      : UTC 2014-07-25 23:49:21\n\n","torrent":{"xt":"urn:btih:7a1f087a1c528c2ff47f5276e50c14b78badec50","amp;dn":"MikesApartment.Tina.Hot.xXx.2014-LUiK","amp;tr":["udp%3A%2F%2Ftracker.openbittorrent.com%3A80","udp%3A%2F%2Fopen.demonii.com%3A1337","udp%3A%2F%2Ftracker.coppersurfer.tk%3A6969","udp%3A%2F%2Fexodus.desync.com%3A6969"],"infoHash":"7a1f087a1c528c2ff47f5276e50c14b78badec50","infoHashBuffer":{"type":"Buffer","data":[122,31,8,122,28,82,140,47,244,127,82,118,229,12,20,183,139,173,236,80]},"announce":[],"urlList":[]}}